<mxfile host="app.diagrams.net" modified="2023-11-18T17:01:09.173Z" agent="Mozilla/5.0 (Windows NT 10.0; Win64; x64; rv:109.0) Gecko/20100101 Firefox/119.0" etag="XwLAT3Jrii659eNRCTIv" version="22.1.3" type="device">
  <diagram id="R2lEEEUBdFMjLlhIrx00" name="Page-1">
    <mxGraphModel dx="2284" dy="902" grid="1" gridSize="10" guides="1" tooltips="1" connect="1" arrows="1" fold="1" page="1" pageScale="1" pageWidth="850" pageHeight="1100" math="0" shadow="0" extFonts="Permanent Marker^https://fonts.googleapis.com/css?family=Permanent+Marker">
      <root>
        <mxCell id="0" />
        <mxCell id="1" parent="0" />
        <mxCell id="-cBvw6SvAeBIQjjov1bn-34" style="rounded=0;orthogonalLoop=1;jettySize=auto;html=1;exitX=1;exitY=0.5;exitDx=0;exitDy=0;entryX=0;entryY=0.5;entryDx=0;entryDy=0;endArrow=none;endFill=0;" parent="1" source="-cBvw6SvAeBIQjjov1bn-1" target="-cBvw6SvAeBIQjjov1bn-33" edge="1">
          <mxGeometry relative="1" as="geometry" />
        </mxCell>
        <mxCell id="-cBvw6SvAeBIQjjov1bn-50" style="edgeStyle=orthogonalEdgeStyle;rounded=0;orthogonalLoop=1;jettySize=auto;html=1;exitX=0;exitY=0.5;exitDx=0;exitDy=0;entryX=1;entryY=0.5;entryDx=0;entryDy=0;endArrow=none;endFill=0;" parent="1" source="-cBvw6SvAeBIQjjov1bn-1" edge="1">
          <mxGeometry relative="1" as="geometry">
            <mxPoint x="-75" y="575" as="targetPoint" />
            <Array as="points">
              <mxPoint x="-30" y="620" />
              <mxPoint x="-30" y="575" />
            </Array>
          </mxGeometry>
        </mxCell>
        <mxCell id="-cBvw6SvAeBIQjjov1bn-54" style="edgeStyle=orthogonalEdgeStyle;rounded=0;orthogonalLoop=1;jettySize=auto;html=1;exitX=0.5;exitY=1;exitDx=0;exitDy=0;entryX=0.5;entryY=0;entryDx=0;entryDy=0;endArrow=none;endFill=0;" parent="1" source="-cBvw6SvAeBIQjjov1bn-1" target="-cBvw6SvAeBIQjjov1bn-53" edge="1">
          <mxGeometry relative="1" as="geometry" />
        </mxCell>
        <mxCell id="-cBvw6SvAeBIQjjov1bn-1" value="MastersProgram" style="rounded=0;whiteSpace=wrap;html=1;fillColor=#dae8fc;strokeColor=#6c8ebf;" parent="1" vertex="1">
          <mxGeometry x="20" y="590" width="120" height="60" as="geometry" />
        </mxCell>
        <mxCell id="-cBvw6SvAeBIQjjov1bn-9" value="University" style="rounded=0;whiteSpace=wrap;html=1;fillColor=#dae8fc;strokeColor=#6c8ebf;" parent="1" vertex="1">
          <mxGeometry x="152.5" y="280" width="120" height="60" as="geometry" />
        </mxCell>
        <mxCell id="-cBvw6SvAeBIQjjov1bn-48" style="edgeStyle=orthogonalEdgeStyle;rounded=0;orthogonalLoop=1;jettySize=auto;html=1;entryX=0;entryY=0.5;entryDx=0;entryDy=0;endArrow=none;endFill=0;" parent="1" source="-cBvw6SvAeBIQjjov1bn-11" edge="1">
          <mxGeometry relative="1" as="geometry">
            <mxPoint x="-160" y="575" as="targetPoint" />
          </mxGeometry>
        </mxCell>
        <mxCell id="-cBvw6SvAeBIQjjov1bn-11" value="Application" style="rounded=0;whiteSpace=wrap;html=1;fillColor=#dae8fc;strokeColor=#6c8ebf;" parent="1" vertex="1">
          <mxGeometry x="-320" y="545" width="120" height="60" as="geometry" />
        </mxCell>
        <mxCell id="-cBvw6SvAeBIQjjov1bn-12" value="Lesson" style="rounded=0;whiteSpace=wrap;html=1;fillColor=#dae8fc;strokeColor=#6c8ebf;" parent="1" vertex="1">
          <mxGeometry x="292.5" y="590" width="120" height="60" as="geometry" />
        </mxCell>
        <mxCell id="-cBvw6SvAeBIQjjov1bn-17" value="JobOpportunity" style="rounded=0;whiteSpace=wrap;html=1;fillColor=#dae8fc;strokeColor=#6c8ebf;" parent="1" vertex="1">
          <mxGeometry x="20" y="830" width="120" height="60" as="geometry" />
        </mxCell>
        <mxCell id="-cBvw6SvAeBIQjjov1bn-28" value="N" style="text;html=1;align=center;verticalAlign=middle;resizable=0;points=[];autosize=1;strokeColor=none;fillColor=none;" parent="1" vertex="1">
          <mxGeometry x="120" y="410" width="30" height="30" as="geometry" />
        </mxCell>
        <mxCell id="-cBvw6SvAeBIQjjov1bn-35" style="edgeStyle=orthogonalEdgeStyle;rounded=0;orthogonalLoop=1;jettySize=auto;html=1;exitX=1;exitY=0.5;exitDx=0;exitDy=0;entryX=0;entryY=0.5;entryDx=0;entryDy=0;endArrow=none;endFill=0;" parent="1" source="-cBvw6SvAeBIQjjov1bn-33" target="-cBvw6SvAeBIQjjov1bn-12" edge="1">
          <mxGeometry relative="1" as="geometry" />
        </mxCell>
        <mxCell id="-cBvw6SvAeBIQjjov1bn-33" value="contains" style="rhombus;whiteSpace=wrap;html=1;fillColor=#f8cecc;strokeColor=#b85450;" parent="1" vertex="1">
          <mxGeometry x="180" y="600" width="85" height="40" as="geometry" />
        </mxCell>
        <mxCell id="-cBvw6SvAeBIQjjov1bn-43" value="N" style="text;html=1;align=center;verticalAlign=middle;resizable=0;points=[];autosize=1;strokeColor=none;fillColor=none;" parent="1" vertex="1">
          <mxGeometry x="352.5" y="550" width="30" height="30" as="geometry" />
        </mxCell>
        <mxCell id="-cBvw6SvAeBIQjjov1bn-45" value="M" style="text;html=1;align=center;verticalAlign=middle;resizable=0;points=[];autosize=1;strokeColor=none;fillColor=none;" parent="1" vertex="1">
          <mxGeometry x="160" y="590" width="30" height="30" as="geometry" />
        </mxCell>
        <mxCell id="-cBvw6SvAeBIQjjov1bn-46" value="N" style="text;html=1;align=center;verticalAlign=middle;resizable=0;points=[];autosize=1;strokeColor=none;fillColor=none;" parent="1" vertex="1">
          <mxGeometry x="257.5" y="590" width="30" height="30" as="geometry" />
        </mxCell>
        <mxCell id="-cBvw6SvAeBIQjjov1bn-51" value="1" style="text;html=1;align=center;verticalAlign=middle;resizable=0;points=[];autosize=1;strokeColor=none;fillColor=none;" parent="1" vertex="1">
          <mxGeometry x="-190" y="575" width="30" height="30" as="geometry" />
        </mxCell>
        <mxCell id="-cBvw6SvAeBIQjjov1bn-52" value="N" style="text;html=1;align=center;verticalAlign=middle;resizable=0;points=[];autosize=1;strokeColor=none;fillColor=none;" parent="1" vertex="1">
          <mxGeometry x="-70" y="575" width="30" height="30" as="geometry" />
        </mxCell>
        <mxCell id="-cBvw6SvAeBIQjjov1bn-55" style="edgeStyle=orthogonalEdgeStyle;rounded=0;orthogonalLoop=1;jettySize=auto;html=1;exitX=0.5;exitY=1;exitDx=0;exitDy=0;entryX=0.5;entryY=0;entryDx=0;entryDy=0;endArrow=none;endFill=0;" parent="1" source="-cBvw6SvAeBIQjjov1bn-53" target="-cBvw6SvAeBIQjjov1bn-17" edge="1">
          <mxGeometry relative="1" as="geometry" />
        </mxCell>
        <mxCell id="-cBvw6SvAeBIQjjov1bn-53" value="brings" style="rhombus;whiteSpace=wrap;html=1;fillColor=#f8cecc;strokeColor=#b85450;" parent="1" vertex="1">
          <mxGeometry x="37.5" y="720" width="85" height="40" as="geometry" />
        </mxCell>
        <mxCell id="-cBvw6SvAeBIQjjov1bn-56" value="M" style="text;html=1;align=center;verticalAlign=middle;resizable=0;points=[];autosize=1;strokeColor=none;fillColor=none;" parent="1" vertex="1">
          <mxGeometry x="80" y="760" width="30" height="30" as="geometry" />
        </mxCell>
        <mxCell id="-cBvw6SvAeBIQjjov1bn-57" value="N" style="text;html=1;align=center;verticalAlign=middle;resizable=0;points=[];autosize=1;strokeColor=none;fillColor=none;" parent="1" vertex="1">
          <mxGeometry x="80" y="690" width="30" height="30" as="geometry" />
        </mxCell>
        <mxCell id="-cBvw6SvAeBIQjjov1bn-110" style="edgeStyle=orthogonalEdgeStyle;rounded=0;orthogonalLoop=1;jettySize=auto;html=1;exitX=0.5;exitY=1;exitDx=0;exitDy=0;endArrow=none;endFill=0;" parent="1" source="-cBvw6SvAeBIQjjov1bn-106" target="-cBvw6SvAeBIQjjov1bn-12" edge="1">
          <mxGeometry relative="1" as="geometry" />
        </mxCell>
        <mxCell id="Vq4cGkvq0sY0oEgIhacN-1" style="edgeStyle=orthogonalEdgeStyle;rounded=0;orthogonalLoop=1;jettySize=auto;html=1;exitX=0.5;exitY=0;exitDx=0;exitDy=0;entryX=0.5;entryY=1;entryDx=0;entryDy=0;endArrow=none;endFill=0;" parent="1" source="-cBvw6SvAeBIQjjov1bn-106" target="-cBvw6SvAeBIQjjov1bn-115" edge="1">
          <mxGeometry relative="1" as="geometry" />
        </mxCell>
        <mxCell id="-cBvw6SvAeBIQjjov1bn-106" value="teaches" style="rhombus;whiteSpace=wrap;html=1;fillColor=#f8cecc;strokeColor=#b85450;" parent="1" vertex="1">
          <mxGeometry x="310" y="510" width="85" height="40" as="geometry" />
        </mxCell>
        <mxCell id="-cBvw6SvAeBIQjjov1bn-115" value="Professor" style="rounded=0;whiteSpace=wrap;html=1;fillColor=#dae8fc;strokeColor=#6c8ebf;" parent="1" vertex="1">
          <mxGeometry x="292.5" y="410" width="120" height="60" as="geometry" />
        </mxCell>
        <mxCell id="-cBvw6SvAeBIQjjov1bn-119" value="M" style="text;html=1;align=center;verticalAlign=middle;resizable=0;points=[];autosize=1;strokeColor=none;fillColor=none;" parent="1" vertex="1">
          <mxGeometry x="352.5" y="480" width="30" height="30" as="geometry" />
        </mxCell>
        <mxCell id="-cBvw6SvAeBIQjjov1bn-121" value="" style="edgeStyle=orthogonalEdgeStyle;rounded=0;orthogonalLoop=1;jettySize=auto;html=1;endArrow=none;endFill=0;" parent="1" source="-cBvw6SvAeBIQjjov1bn-9" target="-cBvw6SvAeBIQjjov1bn-100" edge="1">
          <mxGeometry relative="1" as="geometry">
            <mxPoint x="153" y="410" as="sourcePoint" />
            <mxPoint x="80" y="510.0000000000002" as="targetPoint" />
            <Array as="points">
              <mxPoint x="213" y="440" />
            </Array>
          </mxGeometry>
        </mxCell>
        <mxCell id="-cBvw6SvAeBIQjjov1bn-122" style="edgeStyle=orthogonalEdgeStyle;rounded=0;orthogonalLoop=1;jettySize=auto;html=1;exitX=0.5;exitY=1;exitDx=0;exitDy=0;endArrow=none;endFill=0;" parent="1" source="-cBvw6SvAeBIQjjov1bn-100" target="-cBvw6SvAeBIQjjov1bn-1" edge="1">
          <mxGeometry relative="1" as="geometry" />
        </mxCell>
        <mxCell id="-cBvw6SvAeBIQjjov1bn-100" value="has" style="rhombus;whiteSpace=wrap;html=1;fillColor=#f8cecc;strokeColor=#b85450;" parent="1" vertex="1">
          <mxGeometry x="37.5" y="420" width="85" height="40" as="geometry" />
        </mxCell>
        <mxCell id="-cBvw6SvAeBIQjjov1bn-123" value="M" style="text;html=1;align=center;verticalAlign=middle;resizable=0;points=[];autosize=1;strokeColor=none;fillColor=none;" parent="1" vertex="1">
          <mxGeometry x="52.5" y="460" width="30" height="30" as="geometry" />
        </mxCell>
        <mxCell id="Vq4cGkvq0sY0oEgIhacN-3" value="N" style="text;html=1;align=center;verticalAlign=middle;resizable=0;points=[];autosize=1;strokeColor=none;fillColor=none;" parent="1" vertex="1">
          <mxGeometry x="325" y="370" width="30" height="30" as="geometry" />
        </mxCell>
        <mxCell id="Vq4cGkvq0sY0oEgIhacN-4" value="1" style="text;html=1;align=center;verticalAlign=middle;resizable=0;points=[];autosize=1;strokeColor=none;fillColor=none;" parent="1" vertex="1">
          <mxGeometry x="322.5" y="310" width="30" height="30" as="geometry" />
        </mxCell>
        <mxCell id="Vq4cGkvq0sY0oEgIhacN-6" style="edgeStyle=orthogonalEdgeStyle;rounded=0;orthogonalLoop=1;jettySize=auto;html=1;exitX=0.5;exitY=0;exitDx=0;exitDy=0;entryX=1;entryY=0.5;entryDx=0;entryDy=0;endArrow=none;endFill=0;" parent="1" source="Vq4cGkvq0sY0oEgIhacN-5" target="-cBvw6SvAeBIQjjov1bn-9" edge="1">
          <mxGeometry relative="1" as="geometry">
            <Array as="points">
              <mxPoint x="353" y="310" />
            </Array>
          </mxGeometry>
        </mxCell>
        <mxCell id="Vq4cGkvq0sY0oEgIhacN-7" style="edgeStyle=orthogonalEdgeStyle;rounded=0;orthogonalLoop=1;jettySize=auto;html=1;exitX=0.5;exitY=1;exitDx=0;exitDy=0;endArrow=none;endFill=0;" parent="1" source="Vq4cGkvq0sY0oEgIhacN-5" target="-cBvw6SvAeBIQjjov1bn-115" edge="1">
          <mxGeometry relative="1" as="geometry" />
        </mxCell>
        <mxCell id="Vq4cGkvq0sY0oEgIhacN-5" value="belongs" style="rhombus;whiteSpace=wrap;html=1;fillColor=#f8cecc;strokeColor=#b85450;" parent="1" vertex="1">
          <mxGeometry x="310" y="330" width="85" height="40" as="geometry" />
        </mxCell>
        <mxCell id="Vq4cGkvq0sY0oEgIhacN-16" style="edgeStyle=orthogonalEdgeStyle;rounded=0;orthogonalLoop=1;jettySize=auto;html=1;exitX=0.5;exitY=1;exitDx=0;exitDy=0;endArrow=none;endFill=0;" parent="1" source="Vq4cGkvq0sY0oEgIhacN-9" target="-cBvw6SvAeBIQjjov1bn-9" edge="1">
          <mxGeometry relative="1" as="geometry" />
        </mxCell>
        <mxCell id="Vq4cGkvq0sY0oEgIhacN-9" value="name" style="ellipse;whiteSpace=wrap;html=1;fillColor=#fff2cc;strokeColor=#d6b656;" parent="1" vertex="1">
          <mxGeometry x="140" y="200" width="60" height="30" as="geometry" />
        </mxCell>
        <mxCell id="Vq4cGkvq0sY0oEgIhacN-18" style="edgeStyle=orthogonalEdgeStyle;rounded=0;orthogonalLoop=1;jettySize=auto;html=1;entryX=0.916;entryY=0.013;entryDx=0;entryDy=0;endArrow=none;endFill=0;entryPerimeter=0;" parent="1" target="-cBvw6SvAeBIQjjov1bn-9" edge="1">
          <mxGeometry relative="1" as="geometry">
            <mxPoint x="262.3499999999998" y="260" as="sourcePoint" />
            <mxPoint x="262.63" y="278.86" as="targetPoint" />
          </mxGeometry>
        </mxCell>
        <mxCell id="Vq4cGkvq0sY0oEgIhacN-10" value="location" style="ellipse;whiteSpace=wrap;html=1;fillColor=#fff2cc;strokeColor=#d6b656;" parent="1" vertex="1">
          <mxGeometry x="232.5" y="230" width="60" height="30" as="geometry" />
        </mxCell>
        <mxCell id="Vq4cGkvq0sY0oEgIhacN-21" style="edgeStyle=orthogonalEdgeStyle;rounded=0;orthogonalLoop=1;jettySize=auto;html=1;exitX=0;exitY=0.5;exitDx=0;exitDy=0;entryX=0.5;entryY=0;entryDx=0;entryDy=0;endArrow=none;endFill=0;" parent="1" source="Vq4cGkvq0sY0oEgIhacN-11" target="Vq4cGkvq0sY0oEgIhacN-10" edge="1">
          <mxGeometry relative="1" as="geometry" />
        </mxCell>
        <mxCell id="Vq4cGkvq0sY0oEgIhacN-11" value="country" style="ellipse;whiteSpace=wrap;html=1;fillColor=#ffe6cc;strokeColor=#d79b00;" parent="1" vertex="1">
          <mxGeometry x="292.5" y="200" width="60" height="30" as="geometry" />
        </mxCell>
        <mxCell id="Vq4cGkvq0sY0oEgIhacN-20" style="edgeStyle=orthogonalEdgeStyle;rounded=0;orthogonalLoop=1;jettySize=auto;html=1;exitX=0;exitY=0.5;exitDx=0;exitDy=0;entryX=1;entryY=0.5;entryDx=0;entryDy=0;endArrow=none;endFill=0;" parent="1" source="Vq4cGkvq0sY0oEgIhacN-12" target="Vq4cGkvq0sY0oEgIhacN-10" edge="1">
          <mxGeometry relative="1" as="geometry" />
        </mxCell>
        <mxCell id="Vq4cGkvq0sY0oEgIhacN-12" value="city" style="ellipse;whiteSpace=wrap;html=1;fillColor=#ffe6cc;strokeColor=#d79b00;" parent="1" vertex="1">
          <mxGeometry x="335" y="230" width="60" height="30" as="geometry" />
        </mxCell>
        <mxCell id="Vq4cGkvq0sY0oEgIhacN-23" style="edgeStyle=orthogonalEdgeStyle;rounded=0;orthogonalLoop=1;jettySize=auto;html=1;exitX=0;exitY=0.5;exitDx=0;exitDy=0;entryX=1;entryY=0;entryDx=0;entryDy=0;endArrow=none;endFill=0;" parent="1" source="Vq4cGkvq0sY0oEgIhacN-22" target="-cBvw6SvAeBIQjjov1bn-9" edge="1">
          <mxGeometry relative="1" as="geometry" />
        </mxCell>
        <mxCell id="Vq4cGkvq0sY0oEgIhacN-22" value="rank" style="ellipse;whiteSpace=wrap;html=1;fillColor=#fff2cc;strokeColor=#d6b656;" parent="1" vertex="1">
          <mxGeometry x="290" y="270" width="60" height="30" as="geometry" />
        </mxCell>
        <mxCell id="Vq4cGkvq0sY0oEgIhacN-28" style="edgeStyle=orthogonalEdgeStyle;rounded=0;orthogonalLoop=1;jettySize=auto;html=1;exitX=0;exitY=0.5;exitDx=0;exitDy=0;entryX=0.75;entryY=0;entryDx=0;entryDy=0;endArrow=none;endFill=0;" parent="1" source="Vq4cGkvq0sY0oEgIhacN-24" target="-cBvw6SvAeBIQjjov1bn-115" edge="1">
          <mxGeometry relative="1" as="geometry" />
        </mxCell>
        <mxCell id="Vq4cGkvq0sY0oEgIhacN-24" value="&lt;u&gt;professor_id&lt;/u&gt;" style="ellipse;whiteSpace=wrap;html=1;fillColor=#fff2cc;strokeColor=#d6b656;" parent="1" vertex="1">
          <mxGeometry x="430" y="360" width="90" height="30" as="geometry" />
        </mxCell>
        <mxCell id="Vq4cGkvq0sY0oEgIhacN-29" style="edgeStyle=orthogonalEdgeStyle;rounded=0;orthogonalLoop=1;jettySize=auto;html=1;exitX=0;exitY=0.5;exitDx=0;exitDy=0;entryX=1;entryY=0;entryDx=0;entryDy=0;endArrow=none;endFill=0;" parent="1" source="Vq4cGkvq0sY0oEgIhacN-25" target="-cBvw6SvAeBIQjjov1bn-115" edge="1">
          <mxGeometry relative="1" as="geometry" />
        </mxCell>
        <mxCell id="Vq4cGkvq0sY0oEgIhacN-25" value="first_name" style="ellipse;whiteSpace=wrap;html=1;fillColor=#fff2cc;strokeColor=#d6b656;" parent="1" vertex="1">
          <mxGeometry x="430" y="400" width="70" height="30" as="geometry" />
        </mxCell>
        <mxCell id="Vq4cGkvq0sY0oEgIhacN-30" style="edgeStyle=orthogonalEdgeStyle;rounded=0;orthogonalLoop=1;jettySize=auto;html=1;exitX=0;exitY=0.5;exitDx=0;exitDy=0;entryX=1;entryY=0.75;entryDx=0;entryDy=0;endArrow=none;endFill=0;" parent="1" source="Vq4cGkvq0sY0oEgIhacN-26" target="-cBvw6SvAeBIQjjov1bn-115" edge="1">
          <mxGeometry relative="1" as="geometry" />
        </mxCell>
        <mxCell id="Vq4cGkvq0sY0oEgIhacN-26" value="last_name" style="ellipse;whiteSpace=wrap;html=1;fillColor=#fff2cc;strokeColor=#d6b656;" parent="1" vertex="1">
          <mxGeometry x="430" y="440" width="70" height="30" as="geometry" />
        </mxCell>
        <mxCell id="Vq4cGkvq0sY0oEgIhacN-34" style="edgeStyle=orthogonalEdgeStyle;rounded=0;orthogonalLoop=1;jettySize=auto;html=1;exitX=0.5;exitY=0;exitDx=0;exitDy=0;endArrow=none;endFill=0;" parent="1" source="Vq4cGkvq0sY0oEgIhacN-32" target="-cBvw6SvAeBIQjjov1bn-12" edge="1">
          <mxGeometry relative="1" as="geometry">
            <Array as="points">
              <mxPoint x="310" y="670" />
              <mxPoint x="350" y="670" />
            </Array>
          </mxGeometry>
        </mxCell>
        <mxCell id="Vq4cGkvq0sY0oEgIhacN-32" value="&lt;u&gt;lesson_code&lt;/u&gt;" style="ellipse;whiteSpace=wrap;html=1;fillColor=#fff2cc;strokeColor=#d6b656;" parent="1" vertex="1">
          <mxGeometry x="265" y="690" width="90" height="30" as="geometry" />
        </mxCell>
        <mxCell id="Vq4cGkvq0sY0oEgIhacN-35" style="edgeStyle=orthogonalEdgeStyle;rounded=0;orthogonalLoop=1;jettySize=auto;html=1;exitX=0.5;exitY=0;exitDx=0;exitDy=0;endArrow=none;endFill=0;" parent="1" source="Vq4cGkvq0sY0oEgIhacN-33" edge="1">
          <mxGeometry relative="1" as="geometry">
            <mxPoint x="350" y="650" as="targetPoint" />
            <Array as="points">
              <mxPoint x="400" y="670" />
              <mxPoint x="350" y="670" />
            </Array>
          </mxGeometry>
        </mxCell>
        <mxCell id="Vq4cGkvq0sY0oEgIhacN-33" value="name" style="ellipse;whiteSpace=wrap;html=1;fillColor=#fff2cc;strokeColor=#d6b656;" parent="1" vertex="1">
          <mxGeometry x="370" y="690" width="60" height="30" as="geometry" />
        </mxCell>
        <mxCell id="q_yVc49AFoi8xn_i-CeX-12" style="edgeStyle=orthogonalEdgeStyle;rounded=0;orthogonalLoop=1;jettySize=auto;html=1;entryX=0;entryY=0;entryDx=0;entryDy=0;endArrow=none;endFill=0;" parent="1" source="q_yVc49AFoi8xn_i-CeX-1" target="-cBvw6SvAeBIQjjov1bn-1" edge="1">
          <mxGeometry relative="1" as="geometry" />
        </mxCell>
        <mxCell id="q_yVc49AFoi8xn_i-CeX-1" value="&lt;u&gt;id&lt;/u&gt;" style="ellipse;whiteSpace=wrap;html=1;fillColor=#fff2cc;strokeColor=#d6b656;" parent="1" vertex="1">
          <mxGeometry x="-40" y="530" width="60" height="30" as="geometry" />
        </mxCell>
        <mxCell id="q_yVc49AFoi8xn_i-CeX-2" value="duration" style="ellipse;whiteSpace=wrap;html=1;fillColor=#fff2cc;strokeColor=#d6b656;" parent="1" vertex="1">
          <mxGeometry x="5" y="500" width="60" height="30" as="geometry" />
        </mxCell>
        <mxCell id="q_yVc49AFoi8xn_i-CeX-3" value="&lt;div&gt;name&lt;/div&gt;" style="ellipse;whiteSpace=wrap;html=1;fillColor=#fff2cc;strokeColor=#d6b656;" parent="1" vertex="1">
          <mxGeometry x="90" y="500" width="60" height="30" as="geometry" />
        </mxCell>
        <mxCell id="q_yVc49AFoi8xn_i-CeX-4" value="thesis" style="ellipse;whiteSpace=wrap;html=1;fillColor=#fff2cc;strokeColor=#d6b656;" parent="1" vertex="1">
          <mxGeometry x="166.25" y="520" width="60" height="30" as="geometry" />
        </mxCell>
        <mxCell id="q_yVc49AFoi8xn_i-CeX-23" style="edgeStyle=orthogonalEdgeStyle;rounded=0;orthogonalLoop=1;jettySize=auto;html=1;entryX=1;entryY=0;entryDx=0;entryDy=0;endArrow=none;endFill=0;" parent="1" source="q_yVc49AFoi8xn_i-CeX-5" target="-cBvw6SvAeBIQjjov1bn-1" edge="1">
          <mxGeometry relative="1" as="geometry">
            <mxPoint x="140" y="575" as="targetPoint" />
          </mxGeometry>
        </mxCell>
        <mxCell id="q_yVc49AFoi8xn_i-CeX-5" value="internship" style="ellipse;whiteSpace=wrap;html=1;fillColor=#fff2cc;strokeColor=#d6b656;" parent="1" vertex="1">
          <mxGeometry x="170" y="555" width="62.5" height="30" as="geometry" />
        </mxCell>
        <mxCell id="q_yVc49AFoi8xn_i-CeX-24" style="edgeStyle=orthogonalEdgeStyle;rounded=0;orthogonalLoop=1;jettySize=auto;html=1;entryX=1;entryY=0.75;entryDx=0;entryDy=0;endArrow=none;endFill=0;" parent="1" source="q_yVc49AFoi8xn_i-CeX-6" target="-cBvw6SvAeBIQjjov1bn-1" edge="1">
          <mxGeometry relative="1" as="geometry">
            <Array as="points">
              <mxPoint x="160" y="635" />
            </Array>
          </mxGeometry>
        </mxCell>
        <mxCell id="q_yVc49AFoi8xn_i-CeX-6" value="price_local" style="ellipse;whiteSpace=wrap;html=1;fillColor=#fff2cc;strokeColor=#d6b656;" parent="1" vertex="1">
          <mxGeometry x="125" y="705" width="77.5" height="30" as="geometry" />
        </mxCell>
        <mxCell id="q_yVc49AFoi8xn_i-CeX-25" style="edgeStyle=orthogonalEdgeStyle;rounded=0;orthogonalLoop=1;jettySize=auto;html=1;entryX=0;entryY=0.75;entryDx=0;entryDy=0;endArrow=none;endFill=0;" parent="1" source="q_yVc49AFoi8xn_i-CeX-7" target="-cBvw6SvAeBIQjjov1bn-1" edge="1">
          <mxGeometry relative="1" as="geometry" />
        </mxCell>
        <mxCell id="q_yVc49AFoi8xn_i-CeX-7" value="price_foreign" style="ellipse;whiteSpace=wrap;html=1;fillColor=#fff2cc;strokeColor=#d6b656;" parent="1" vertex="1">
          <mxGeometry x="-50" y="690" width="87.5" height="30" as="geometry" />
        </mxCell>
        <mxCell id="q_yVc49AFoi8xn_i-CeX-14" style="edgeStyle=orthogonalEdgeStyle;rounded=0;orthogonalLoop=1;jettySize=auto;html=1;endArrow=none;endFill=0;entryX=0.125;entryY=0;entryDx=0;entryDy=0;entryPerimeter=0;" parent="1" source="q_yVc49AFoi8xn_i-CeX-2" target="-cBvw6SvAeBIQjjov1bn-1" edge="1">
          <mxGeometry relative="1" as="geometry">
            <mxPoint x="40" y="580" as="targetPoint" />
          </mxGeometry>
        </mxCell>
        <mxCell id="q_yVc49AFoi8xn_i-CeX-16" style="edgeStyle=orthogonalEdgeStyle;rounded=0;orthogonalLoop=1;jettySize=auto;html=1;entryX=0.834;entryY=0.003;entryDx=0;entryDy=0;entryPerimeter=0;endArrow=none;endFill=0;" parent="1" source="q_yVc49AFoi8xn_i-CeX-3" target="-cBvw6SvAeBIQjjov1bn-1" edge="1">
          <mxGeometry relative="1" as="geometry" />
        </mxCell>
        <mxCell id="q_yVc49AFoi8xn_i-CeX-17" style="edgeStyle=orthogonalEdgeStyle;rounded=0;orthogonalLoop=1;jettySize=auto;html=1;endArrow=none;endFill=0;" parent="1" source="q_yVc49AFoi8xn_i-CeX-4" edge="1">
          <mxGeometry relative="1" as="geometry">
            <mxPoint x="129" y="590" as="targetPoint" />
          </mxGeometry>
        </mxCell>
        <mxCell id="frPYJ4hjf-r7NF71AFFR-7" style="edgeStyle=orthogonalEdgeStyle;rounded=0;orthogonalLoop=1;jettySize=auto;html=1;endArrow=none;endFill=0;" parent="1" source="frPYJ4hjf-r7NF71AFFR-6" target="-cBvw6SvAeBIQjjov1bn-17" edge="1">
          <mxGeometry relative="1" as="geometry" />
        </mxCell>
        <mxCell id="frPYJ4hjf-r7NF71AFFR-6" value="scientific_field" style="ellipse;whiteSpace=wrap;html=1;fillColor=#fff2cc;strokeColor=#d6b656;" parent="1" vertex="1">
          <mxGeometry x="190" y="840" width="90" height="40" as="geometry" />
        </mxCell>
        <mxCell id="frPYJ4hjf-r7NF71AFFR-21" style="edgeStyle=orthogonalEdgeStyle;rounded=0;orthogonalLoop=1;jettySize=auto;html=1;exitX=0;exitY=0.5;exitDx=0;exitDy=0;entryX=1;entryY=0.5;entryDx=0;entryDy=0;endArrow=none;endFill=0;" parent="1" target="frPYJ4hjf-r7NF71AFFR-20" edge="1">
          <mxGeometry relative="1" as="geometry">
            <mxPoint x="-160" y="675" as="sourcePoint" />
          </mxGeometry>
        </mxCell>
        <mxCell id="frPYJ4hjf-r7NF71AFFR-19" style="edgeStyle=orthogonalEdgeStyle;rounded=0;orthogonalLoop=1;jettySize=auto;html=1;endArrow=none;endFill=0;" parent="1" edge="1">
          <mxGeometry relative="1" as="geometry">
            <mxPoint x="-74.99999999999994" y="675.81" as="sourcePoint" />
            <mxPoint x="20" y="620" as="targetPoint" />
            <Array as="points">
              <mxPoint x="-30" y="675.81" />
              <mxPoint x="-30" y="619.81" />
            </Array>
          </mxGeometry>
        </mxCell>
        <mxCell id="frPYJ4hjf-r7NF71AFFR-20" value="Requirements" style="rounded=0;whiteSpace=wrap;html=1;fillColor=#dae8fc;strokeColor=#6c8ebf;" parent="1" vertex="1">
          <mxGeometry x="-320" y="645" width="120" height="60" as="geometry" />
        </mxCell>
        <mxCell id="frPYJ4hjf-r7NF71AFFR-22" value="1" style="text;html=1;align=center;verticalAlign=middle;resizable=0;points=[];autosize=1;strokeColor=none;fillColor=none;" parent="1" vertex="1">
          <mxGeometry x="-192.5" y="645" width="30" height="30" as="geometry" />
        </mxCell>
        <mxCell id="frPYJ4hjf-r7NF71AFFR-24" value="N" style="text;html=1;align=center;verticalAlign=middle;resizable=0;points=[];autosize=1;strokeColor=none;fillColor=none;" parent="1" vertex="1">
          <mxGeometry x="-70" y="645" width="30" height="30" as="geometry" />
        </mxCell>
        <mxCell id="frPYJ4hjf-r7NF71AFFR-48" style="edgeStyle=orthogonalEdgeStyle;rounded=0;orthogonalLoop=1;jettySize=auto;html=1;entryX=0;entryY=0.5;entryDx=0;entryDy=0;endArrow=none;endFill=0;" parent="1" source="frPYJ4hjf-r7NF71AFFR-26" target="-cBvw6SvAeBIQjjov1bn-11" edge="1">
          <mxGeometry relative="1" as="geometry" />
        </mxCell>
        <mxCell id="frPYJ4hjf-r7NF71AFFR-26" value="&lt;u&gt;id&lt;/u&gt;" style="ellipse;whiteSpace=wrap;html=1;fillColor=#fff2cc;strokeColor=#d6b656;" parent="1" vertex="1">
          <mxGeometry x="-370" y="480" width="60" height="30" as="geometry" />
        </mxCell>
        <mxCell id="frPYJ4hjf-r7NF71AFFR-27" value="&lt;u&gt;job_id&lt;/u&gt;" style="ellipse;whiteSpace=wrap;html=1;fillColor=#fff2cc;strokeColor=#d6b656;" parent="1" vertex="1">
          <mxGeometry x="65" y="930" width="60" height="30" as="geometry" />
        </mxCell>
        <mxCell id="frPYJ4hjf-r7NF71AFFR-42" style="edgeStyle=orthogonalEdgeStyle;rounded=0;orthogonalLoop=1;jettySize=auto;html=1;endArrow=none;endFill=0;" parent="1" source="frPYJ4hjf-r7NF71AFFR-28" edge="1">
          <mxGeometry relative="1" as="geometry">
            <mxPoint x="-320" y="660" as="targetPoint" />
            <Array as="points">
              <mxPoint x="-390" y="710" />
              <mxPoint x="-390" y="660" />
            </Array>
          </mxGeometry>
        </mxCell>
        <mxCell id="frPYJ4hjf-r7NF71AFFR-28" value="english_degree" style="ellipse;whiteSpace=wrap;html=1;fillColor=#fff2cc;strokeColor=#d6b656;" parent="1" vertex="1">
          <mxGeometry x="-530" y="695" width="87.5" height="30" as="geometry" />
        </mxCell>
        <mxCell id="frPYJ4hjf-r7NF71AFFR-41" style="edgeStyle=orthogonalEdgeStyle;rounded=0;orthogonalLoop=1;jettySize=auto;html=1;entryX=0;entryY=0.25;entryDx=0;entryDy=0;endArrow=none;endFill=0;" parent="1" source="frPYJ4hjf-r7NF71AFFR-31" target="frPYJ4hjf-r7NF71AFFR-20" edge="1">
          <mxGeometry relative="1" as="geometry" />
        </mxCell>
        <mxCell id="frPYJ4hjf-r7NF71AFFR-31" value="work_experience" style="ellipse;whiteSpace=wrap;html=1;fillColor=#fff2cc;strokeColor=#d6b656;" parent="1" vertex="1">
          <mxGeometry x="-550" y="645" width="107.5" height="30" as="geometry" />
        </mxCell>
        <mxCell id="frPYJ4hjf-r7NF71AFFR-32" value="recomendation_letters" style="ellipse;whiteSpace=wrap;html=1;fillColor=#fff2cc;strokeColor=#d6b656;" parent="1" vertex="1">
          <mxGeometry x="-355" y="820" width="150" height="40" as="geometry" />
        </mxCell>
        <mxCell id="frPYJ4hjf-r7NF71AFFR-43" style="edgeStyle=orthogonalEdgeStyle;rounded=0;orthogonalLoop=1;jettySize=auto;html=1;exitX=0.5;exitY=0;exitDx=0;exitDy=0;endArrow=none;endFill=0;" parent="1" source="frPYJ4hjf-r7NF71AFFR-33" edge="1">
          <mxGeometry relative="1" as="geometry">
            <mxPoint x="-320" y="660" as="targetPoint" />
            <Array as="points">
              <mxPoint x="-390" y="660" />
            </Array>
          </mxGeometry>
        </mxCell>
        <mxCell id="frPYJ4hjf-r7NF71AFFR-33" value="standarized_tests_score" style="ellipse;whiteSpace=wrap;html=1;fillColor=#fff2cc;strokeColor=#d6b656;" parent="1" vertex="1">
          <mxGeometry x="-460" y="750" width="140" height="50" as="geometry" />
        </mxCell>
        <mxCell id="frPYJ4hjf-r7NF71AFFR-40" style="edgeStyle=orthogonalEdgeStyle;rounded=0;orthogonalLoop=1;jettySize=auto;html=1;entryX=0;entryY=0.25;entryDx=0;entryDy=0;endArrow=none;endFill=0;" parent="1" source="frPYJ4hjf-r7NF71AFFR-34" target="frPYJ4hjf-r7NF71AFFR-20" edge="1">
          <mxGeometry relative="1" as="geometry" />
        </mxCell>
        <mxCell id="frPYJ4hjf-r7NF71AFFR-34" value="&lt;u&gt;id&lt;/u&gt;" style="ellipse;whiteSpace=wrap;html=1;fillColor=#fff2cc;strokeColor=#d6b656;" parent="1" vertex="1">
          <mxGeometry x="-420" y="615" width="60" height="30" as="geometry" />
        </mxCell>
        <mxCell id="frPYJ4hjf-r7NF71AFFR-45" style="edgeStyle=orthogonalEdgeStyle;rounded=0;orthogonalLoop=1;jettySize=auto;html=1;endArrow=none;endFill=0;" parent="1" source="frPYJ4hjf-r7NF71AFFR-38" target="frPYJ4hjf-r7NF71AFFR-20" edge="1">
          <mxGeometry relative="1" as="geometry" />
        </mxCell>
        <mxCell id="frPYJ4hjf-r7NF71AFFR-38" value="lowest_bachelor_score" style="ellipse;whiteSpace=wrap;html=1;fillColor=#fff2cc;strokeColor=#d6b656;" parent="1" vertex="1">
          <mxGeometry x="-270" y="740" width="150" height="40" as="geometry" />
        </mxCell>
        <mxCell id="frPYJ4hjf-r7NF71AFFR-44" style="edgeStyle=orthogonalEdgeStyle;rounded=0;orthogonalLoop=1;jettySize=auto;html=1;endArrow=none;endFill=0;entryX=0.327;entryY=0.97;entryDx=0;entryDy=0;entryPerimeter=0;" parent="1" source="frPYJ4hjf-r7NF71AFFR-32" target="frPYJ4hjf-r7NF71AFFR-20" edge="1">
          <mxGeometry relative="1" as="geometry">
            <mxPoint x="-280" y="710" as="targetPoint" />
          </mxGeometry>
        </mxCell>
        <mxCell id="frPYJ4hjf-r7NF71AFFR-49" style="edgeStyle=orthogonalEdgeStyle;rounded=0;orthogonalLoop=1;jettySize=auto;html=1;endArrow=none;endFill=0;" parent="1" source="frPYJ4hjf-r7NF71AFFR-46" target="-cBvw6SvAeBIQjjov1bn-11" edge="1">
          <mxGeometry relative="1" as="geometry" />
        </mxCell>
        <mxCell id="frPYJ4hjf-r7NF71AFFR-46" value="deadline" style="ellipse;whiteSpace=wrap;html=1;fillColor=#fff2cc;strokeColor=#d6b656;" parent="1" vertex="1">
          <mxGeometry x="-290" y="460" width="60" height="30" as="geometry" />
        </mxCell>
        <mxCell id="frPYJ4hjf-r7NF71AFFR-50" style="edgeStyle=orthogonalEdgeStyle;rounded=0;orthogonalLoop=1;jettySize=auto;html=1;entryX=0.75;entryY=0;entryDx=0;entryDy=0;endArrow=none;endFill=0;" parent="1" source="frPYJ4hjf-r7NF71AFFR-47" target="-cBvw6SvAeBIQjjov1bn-11" edge="1">
          <mxGeometry relative="1" as="geometry" />
        </mxCell>
        <mxCell id="frPYJ4hjf-r7NF71AFFR-47" value="price" style="ellipse;whiteSpace=wrap;html=1;fillColor=#fff2cc;strokeColor=#d6b656;" parent="1" vertex="1">
          <mxGeometry x="-200" y="470" width="60" height="30" as="geometry" />
        </mxCell>
        <mxCell id="frPYJ4hjf-r7NF71AFFR-53" style="edgeStyle=orthogonalEdgeStyle;rounded=0;orthogonalLoop=1;jettySize=auto;html=1;entryX=0;entryY=0.5;entryDx=0;entryDy=0;endArrow=none;endFill=0;" parent="1" source="frPYJ4hjf-r7NF71AFFR-51" target="-cBvw6SvAeBIQjjov1bn-17" edge="1">
          <mxGeometry relative="1" as="geometry" />
        </mxCell>
        <mxCell id="frPYJ4hjf-r7NF71AFFR-51" value="junior_salary" style="ellipse;whiteSpace=wrap;html=1;fillColor=#fff2cc;strokeColor=#d6b656;" parent="1" vertex="1">
          <mxGeometry x="-70" y="920" width="90" height="40" as="geometry" />
        </mxCell>
        <mxCell id="frPYJ4hjf-r7NF71AFFR-52" style="edgeStyle=orthogonalEdgeStyle;rounded=0;orthogonalLoop=1;jettySize=auto;html=1;exitX=0.5;exitY=0;exitDx=0;exitDy=0;entryX=0.62;entryY=0.986;entryDx=0;entryDy=0;entryPerimeter=0;endArrow=none;endFill=0;" parent="1" source="frPYJ4hjf-r7NF71AFFR-27" target="-cBvw6SvAeBIQjjov1bn-17" edge="1">
          <mxGeometry relative="1" as="geometry" />
        </mxCell>
        <mxCell id="frPYJ4hjf-r7NF71AFFR-55" value="Statistics" style="rounded=0;whiteSpace=wrap;html=1;fillColor=#dae8fc;strokeColor=#6c8ebf;" parent="1" vertex="1">
          <mxGeometry x="-250" y="280" width="120" height="60" as="geometry" />
        </mxCell>
        <mxCell id="frPYJ4hjf-r7NF71AFFR-57" style="edgeStyle=orthogonalEdgeStyle;rounded=0;orthogonalLoop=1;jettySize=auto;html=1;entryX=1;entryY=0.5;entryDx=0;entryDy=0;endArrow=none;endFill=0;exitX=0;exitY=0.5;exitDx=0;exitDy=0;" parent="1" source="frPYJ4hjf-r7NF71AFFR-56" target="frPYJ4hjf-r7NF71AFFR-55" edge="1">
          <mxGeometry relative="1" as="geometry">
            <mxPoint x="-60" y="310" as="sourcePoint" />
          </mxGeometry>
        </mxCell>
        <mxCell id="frPYJ4hjf-r7NF71AFFR-58" style="edgeStyle=orthogonalEdgeStyle;rounded=0;orthogonalLoop=1;jettySize=auto;html=1;endArrow=none;endFill=0;" parent="1" source="frPYJ4hjf-r7NF71AFFR-56" target="-cBvw6SvAeBIQjjov1bn-9" edge="1">
          <mxGeometry relative="1" as="geometry" />
        </mxCell>
        <mxCell id="frPYJ4hjf-r7NF71AFFR-56" value="has" style="rhombus;whiteSpace=wrap;html=1;fillColor=#f8cecc;strokeColor=#b85450;" parent="1" vertex="1">
          <mxGeometry x="-30" y="290" width="95" height="40" as="geometry" />
        </mxCell>
        <mxCell id="frPYJ4hjf-r7NF71AFFR-68" style="edgeStyle=orthogonalEdgeStyle;rounded=0;orthogonalLoop=1;jettySize=auto;html=1;endArrow=none;endFill=0;" parent="1" source="frPYJ4hjf-r7NF71AFFR-60" edge="1">
          <mxGeometry relative="1" as="geometry">
            <mxPoint x="-190" y="280" as="targetPoint" />
          </mxGeometry>
        </mxCell>
        <mxCell id="frPYJ4hjf-r7NF71AFFR-60" value="&lt;span style=&quot;border-color: var(--border-color);&quot;&gt;total_participants&lt;/span&gt;" style="ellipse;whiteSpace=wrap;html=1;fillColor=#fff2cc;strokeColor=#d6b656;" parent="1" vertex="1">
          <mxGeometry x="-190" y="210" width="120" height="30" as="geometry" />
        </mxCell>
        <mxCell id="frPYJ4hjf-r7NF71AFFR-61" value="&lt;span style=&quot;border-color: var(--border-color);&quot;&gt;total_females&lt;/span&gt;" style="ellipse;whiteSpace=wrap;html=1;fillColor=#fff2cc;strokeColor=#d6b656;" parent="1" vertex="1">
          <mxGeometry x="-290" y="370" width="90" height="30" as="geometry" />
        </mxCell>
        <mxCell id="frPYJ4hjf-r7NF71AFFR-64" style="edgeStyle=orthogonalEdgeStyle;rounded=0;orthogonalLoop=1;jettySize=auto;html=1;endArrow=none;endFill=0;" parent="1" source="frPYJ4hjf-r7NF71AFFR-62" target="frPYJ4hjf-r7NF71AFFR-55" edge="1">
          <mxGeometry relative="1" as="geometry">
            <Array as="points">
              <mxPoint x="-130" y="350" />
              <mxPoint x="-190" y="350" />
            </Array>
          </mxGeometry>
        </mxCell>
        <mxCell id="frPYJ4hjf-r7NF71AFFR-62" value="total_males" style="ellipse;whiteSpace=wrap;html=1;fillColor=#fff2cc;strokeColor=#d6b656;" parent="1" vertex="1">
          <mxGeometry x="-172.5" y="375" width="85" height="25" as="geometry" />
        </mxCell>
        <mxCell id="wjJqVFUb4bfdwvRGyWRJ-1" style="edgeStyle=orthogonalEdgeStyle;rounded=0;orthogonalLoop=1;jettySize=auto;html=1;entryX=0;entryY=0.5;entryDx=0;entryDy=0;endArrow=none;endFill=0;" parent="1" source="frPYJ4hjf-r7NF71AFFR-63" target="frPYJ4hjf-r7NF71AFFR-77" edge="1">
          <mxGeometry relative="1" as="geometry" />
        </mxCell>
        <mxCell id="frPYJ4hjf-r7NF71AFFR-63" value="others" style="ellipse;whiteSpace=wrap;html=1;fillColor=#fff2cc;strokeColor=#d6b656;" parent="1" vertex="1">
          <mxGeometry x="-360" y="295" width="50" height="30" as="geometry" />
        </mxCell>
        <mxCell id="frPYJ4hjf-r7NF71AFFR-65" style="edgeStyle=orthogonalEdgeStyle;rounded=0;orthogonalLoop=1;jettySize=auto;html=1;entryX=0.5;entryY=1;entryDx=0;entryDy=0;endArrow=none;endFill=0;" parent="1" source="frPYJ4hjf-r7NF71AFFR-61" target="frPYJ4hjf-r7NF71AFFR-55" edge="1">
          <mxGeometry relative="1" as="geometry">
            <Array as="points">
              <mxPoint x="-245" y="350" />
              <mxPoint x="-190" y="350" />
            </Array>
          </mxGeometry>
        </mxCell>
        <mxCell id="frPYJ4hjf-r7NF71AFFR-70" value="N" style="text;html=1;align=center;verticalAlign=middle;resizable=0;points=[];autosize=1;strokeColor=none;fillColor=none;" parent="1" vertex="1">
          <mxGeometry x="-60" y="310" width="30" height="30" as="geometry" />
        </mxCell>
        <mxCell id="frPYJ4hjf-r7NF71AFFR-72" style="edgeStyle=orthogonalEdgeStyle;rounded=0;orthogonalLoop=1;jettySize=auto;html=1;entryX=0;entryY=0.5;entryDx=0;entryDy=0;endArrow=none;endFill=0;" parent="1" source="frPYJ4hjf-r7NF71AFFR-71" target="frPYJ4hjf-r7NF71AFFR-55" edge="1">
          <mxGeometry relative="1" as="geometry">
            <Array as="points">
              <mxPoint x="-260" y="310" />
            </Array>
          </mxGeometry>
        </mxCell>
        <mxCell id="frPYJ4hjf-r7NF71AFFR-71" value="&lt;u&gt;year&lt;/u&gt;" style="ellipse;whiteSpace=wrap;html=1;fillColor=#fff2cc;strokeColor=#d6b656;" parent="1" vertex="1">
          <mxGeometry x="-280" y="220" width="50" height="30" as="geometry" />
        </mxCell>
        <mxCell id="frPYJ4hjf-r7NF71AFFR-74" style="edgeStyle=orthogonalEdgeStyle;rounded=0;orthogonalLoop=1;jettySize=auto;html=1;entryX=1;entryY=0.5;entryDx=0;entryDy=0;endArrow=none;endFill=0;" parent="1" source="frPYJ4hjf-r7NF71AFFR-73" target="-cBvw6SvAeBIQjjov1bn-17" edge="1">
          <mxGeometry relative="1" as="geometry" />
        </mxCell>
        <mxCell id="frPYJ4hjf-r7NF71AFFR-73" value="job" style="ellipse;whiteSpace=wrap;html=1;fillColor=#fff2cc;strokeColor=#d6b656;" parent="1" vertex="1">
          <mxGeometry x="182.5" y="920" width="90" height="40" as="geometry" />
        </mxCell>
        <mxCell id="frPYJ4hjf-r7NF71AFFR-76" style="edgeStyle=orthogonalEdgeStyle;rounded=0;orthogonalLoop=1;jettySize=auto;html=1;entryX=1;entryY=0.75;entryDx=0;entryDy=0;endArrow=none;endFill=0;" parent="1" source="frPYJ4hjf-r7NF71AFFR-75" target="-cBvw6SvAeBIQjjov1bn-1" edge="1">
          <mxGeometry relative="1" as="geometry">
            <Array as="points">
              <mxPoint x="160" y="680" />
              <mxPoint x="160" y="635" />
            </Array>
          </mxGeometry>
        </mxCell>
        <mxCell id="frPYJ4hjf-r7NF71AFFR-75" value="delivered" style="ellipse;whiteSpace=wrap;html=1;fillColor=#fff2cc;strokeColor=#d6b656;" parent="1" vertex="1">
          <mxGeometry x="173.75" y="665" width="77.5" height="30" as="geometry" />
        </mxCell>
        <mxCell id="frPYJ4hjf-r7NF71AFFR-77" value="Statistics" style="rounded=0;whiteSpace=wrap;html=1;fillColor=#dae8fc;strokeColor=#6c8ebf;" parent="1" vertex="1">
          <mxGeometry x="-245" y="285" width="110" height="50" as="geometry" />
        </mxCell>
        <mxCell id="frPYJ4hjf-r7NF71AFFR-78" value="has" style="rhombus;whiteSpace=wrap;html=1;fillColor=#f8cecc;strokeColor=#b85450;" parent="1" vertex="1">
          <mxGeometry x="-17.5" y="295" width="70" height="30" as="geometry" />
        </mxCell>
        <mxCell id="frPYJ4hjf-r7NF71AFFR-82" value="has" style="rhombus;whiteSpace=wrap;html=1;fillColor=#f8cecc;strokeColor=#b85450;" parent="1" vertex="1">
          <mxGeometry x="-162.5" y="555" width="95" height="40" as="geometry" />
        </mxCell>
        <mxCell id="frPYJ4hjf-r7NF71AFFR-84" value="has" style="rhombus;whiteSpace=wrap;html=1;fillColor=#f8cecc;strokeColor=#b85450;" parent="1" vertex="1">
          <mxGeometry x="-165" y="655" width="95" height="40" as="geometry" />
        </mxCell>
        <mxCell id="frPYJ4hjf-r7NF71AFFR-86" value="1" style="text;html=1;align=center;verticalAlign=middle;resizable=0;points=[];autosize=1;strokeColor=none;fillColor=none;" parent="1" vertex="1">
          <mxGeometry x="65" y="310" width="30" height="30" as="geometry" />
        </mxCell>
        <mxCell id="frPYJ4hjf-r7NF71AFFR-89" style="edgeStyle=orthogonalEdgeStyle;rounded=0;orthogonalLoop=1;jettySize=auto;html=1;exitX=1;exitY=1;exitDx=0;exitDy=0;entryX=0;entryY=0;entryDx=0;entryDy=0;endArrow=none;endFill=0;" parent="1" source="frPYJ4hjf-r7NF71AFFR-88" target="-cBvw6SvAeBIQjjov1bn-9" edge="1">
          <mxGeometry relative="1" as="geometry" />
        </mxCell>
        <mxCell id="frPYJ4hjf-r7NF71AFFR-88" value="&lt;u&gt;university_code&lt;/u&gt;" style="ellipse;whiteSpace=wrap;html=1;fillColor=#fff2cc;strokeColor=#d6b656;" parent="1" vertex="1">
          <mxGeometry x="20" y="200" width="110" height="40" as="geometry" />
        </mxCell>
        <mxCell id="5poMEZ1TtujUQ69kWp1x-4" value="" style="edgeStyle=orthogonalEdgeStyle;rounded=0;orthogonalLoop=1;jettySize=auto;html=1;entryX=1;entryY=0;entryDx=0;entryDy=0;endArrow=none;endFill=0;" parent="1" edge="1">
          <mxGeometry relative="1" as="geometry">
            <mxPoint x="272.4993202250022" y="580" as="sourcePoint" />
            <mxPoint x="243.61" y="610" as="targetPoint" />
            <Array as="points">
              <mxPoint x="272" y="570" />
              <mxPoint x="244" y="570" />
            </Array>
          </mxGeometry>
        </mxCell>
        <mxCell id="5poMEZ1TtujUQ69kWp1x-1" value="is_core" style="ellipse;whiteSpace=wrap;html=1;fillColor=#ffe6cc;strokeColor=#d79b00;" parent="1" vertex="1">
          <mxGeometry x="242.5" y="555" width="60" height="30" as="geometry" />
        </mxCell>
        <mxCell id="wjJqVFUb4bfdwvRGyWRJ-3" style="edgeStyle=orthogonalEdgeStyle;rounded=0;orthogonalLoop=1;jettySize=auto;html=1;endArrow=none;endFill=0;" parent="1" source="wjJqVFUb4bfdwvRGyWRJ-2" edge="1">
          <mxGeometry relative="1" as="geometry">
            <mxPoint x="-260" y="280" as="targetPoint" />
            <Array as="points">
              <mxPoint x="-345" y="270" />
              <mxPoint x="-260" y="270" />
            </Array>
          </mxGeometry>
        </mxCell>
        <mxCell id="wjJqVFUb4bfdwvRGyWRJ-2" value="&lt;u&gt;university_code &lt;i&gt;&lt;font style=&quot;font-size: 10px;&quot;&gt;(foreign key)&lt;/font&gt;&lt;/i&gt;&lt;/u&gt;" style="ellipse;whiteSpace=wrap;html=1;fillColor=#d5e8d4;strokeColor=#82b366;" parent="1" vertex="1">
          <mxGeometry x="-410" y="210" width="120" height="45" as="geometry" />
        </mxCell>
      </root>
    </mxGraphModel>
  </diagram>
</mxfile>
